<?xml version="1.0" encoding="utf-8"?>
<!-- Generator: Adobe Illustrator 25.0.0, SVG Export Plug-In . SVG Version: 6.00 Build 0)  -->
<svg version="1.1" id="Layer_1" xmlns="http://www.w3.org/2000/svg" xmlns:xlink="http://www.w3.org/1999/xlink" x="0px" y="0px"
	 viewBox="0 0 16 16" style="enable-background:new 0 0 16 16;" xml:space="preserve">
<style type="text/css">
	.st0{fill:#FFFFFF;}
</style>
<path class="st0" d="M16,0.7c0.1-0.3,0-0.5-0.3-0.6c-0.1,0-0.3,0-0.4,0L0.8,5.9C0.4,6,0.2,6.4,0.3,6.8C0.4,7,0.5,7.1,0.6,7.2l5,3.2
	l1.5,2.4c0.2,0.2,0.5,0.3,0.7,0.1c0.2-0.1,0.3-0.4,0.2-0.7l-1.4-2.2l7.5-7.5l-1.9,4.7c-0.1,0.3,0,0.5,0.3,0.7c0.3,0.1,0.5,0,0.7-0.3
	c0,0,0,0,0,0C13.2,7.7,16,0.7,16,0.7z M13.4,1.9L5.9,9.4L1.6,6.6C1.6,6.6,13.4,1.9,13.4,1.9z"/>
<path class="st0" d="M16,12.5c0,1.9-1.6,3.5-3.5,3.5S9,14.4,9,12.5S10.6,9,12.5,9S16,10.6,16,12.5z M14,10.8
	c-0.2-0.1-0.5-0.1-0.7,0.2c0,0,0,0,0,0l-1.2,1.9l-0.5-0.5c-0.2-0.2-0.5-0.2-0.7,0s-0.2,0.5,0,0.7l0.8,0.8c0.3,0.3,0.8,0.3,1.1,0
	c0,0,0.1-0.1,0.1-0.1l1.3-2.2C14.3,11.3,14.2,11,14,10.8C14,10.8,14,10.8,14,10.8z"/>
</svg>
