<?xml version="1.0" encoding="utf-8"?>
<!-- Generator: Adobe Illustrator 25.0.0, SVG Export Plug-In . SVG Version: 6.00 Build 0)  -->
<svg version="1.1" id="Layer_1" xmlns="http://www.w3.org/2000/svg" xmlns:xlink="http://www.w3.org/1999/xlink" x="0px" y="0px"
	 viewBox="0 0 64 64" style="enable-background:new 0 0 64 64;" xml:space="preserve">
<style type="text/css">
	.st0{fill:#F7F7F9;}
</style>
<g id="HOUSE-20">
	<path class="st0" d="M63,51h-2.9V40c0-0.6-0.4-1-1-1h-6.8V16c0-0.6-0.4-1-1-1h-6.8V4c0-0.6-0.4-1-1-1H20.4c-0.6,0-1,0.4-1,1v11
		h-6.8c-0.6,0-1,0.4-1,1v23H4.8c-0.6,0-1,0.4-1,1v11H1c-0.6,0-1,0.4-1,1s0.4,1,1,1h62c0.6,0,1-0.4,1-1S63.6,51,63,51z M50.4,17v22
		h-1V18h-3.8v21h-1V17H50.4z M48.5,26v5h-1.9v-5H48.5z M46.5,24v-5h1.9v5H46.5z M48.5,33v5h-1.9v-5H48.5z M5.8,41h5.8v10H5.8V41z
		 M13.6,17h5.8v34h-5.8V17z M21.3,5h3.9v27c-0.1,0.5,0.2,1.1,0.7,1.2s1.1-0.2,1.2-0.7c0-0.2,0-0.3,0-0.5V5h15.5v34H29.1
		c-0.6,0-1,0.4-1,1v11h-6.8V5z M30.1,41h28.1v10H30.1V41z"/>
	<path class="st0" d="M14.6,18v21h3.9V18H14.6z M17.5,38h-1.9v-5h1.9V38z M17.5,31h-1.9v-5h1.9V31z M17.5,24h-1.9v-5h1.9V24z"/>
</g>
</svg>
