<?xml version="1.0" encoding="utf-8"?>
<!-- Generator: Adobe Illustrator 25.0.0, SVG Export Plug-In . SVG Version: 6.00 Build 0)  -->
<svg version="1.1" id="eToys3X4rQS1" text-rendering="geometricPrecision" shape-rendering="geometricPrecision"
	 xmlns="http://www.w3.org/2000/svg" xmlns:xlink="http://www.w3.org/1999/xlink" x="0px" y="0px" viewBox="0 0 64 64"
	 style="enable-background:new 0 0 64 64;" xml:space="preserve">
<style type="text/css">
	.st0{fill:#FCFCFC;}
	.st1{fill:#FFFFFF;}
</style>
<g transform="translate(.000001 0.05211)">
	<path class="st0" d="M32.8,3.4C32.6,3.1,32.3,3,32,3s-0.6,0.1-0.8,0.4c-0.8,1-20.1,25.6-20.1,36.8c1.1,27.7,40.6,27.7,41.7,0
		C52.9,28.9,33.6,4.4,32.8,3.4z M32,59c-10.4,0-18.9-8.5-18.9-18.9c0-9.3,15.2-29.7,18.9-34.5c3.7,4.8,18.9,25.2,18.9,34.5
		C50.9,50.5,42.4,59,32,59z"/>
	<g id="eToys3X4rQS4_tr" transform="translate(39.863068,44.900754) rotate(0)">
		<path class="st0" d="M6.9-1.7L3.7-7.4C3.6-7.6,3.4-7.8,3.1-7.9s-0.5,0-0.8,0.1l-3.7,2.1C-1.6-5.5-1.7-5.3-1.8-5s0,0.5,0.1,0.8
			l2.4,4.2h-2c0.4-0.4,0.5-1,0.1-1.4S-2.1-2-2.6-1.7l-4.7,3.9C-7.5,2.4-7.6,2.7-7.6,3s0.1,0.6,0.4,0.8l4.7,3.9
			c0.2,0.1,0.4,0.2,0.6,0.2c0.4,0,0.8-0.3,1-0.7s0-0.9-0.3-1.1C0.4,6,3.5,6.4,5,5.4l0,0l0,0c1.2-0.7,2.1-1.8,2.5-3.2
			S7.6-0.5,6.9-1.7z M-3.8,4.1L-5.1,3l1.3-1.1l6,0.4L3.1,4C2.9,4.1-3.8,4.1-3.8,4.1z M5.2,2.5C5.1,2.7,5,2.9,4.8,3L0.5-4.4l1.9-1.1
			l2.8,4.8C5.8,0.3,5.8,1.5,5.2,2.5L5.2,2.5z"/>
	</g>
	<g id="eToys3X4rQS5_tr" transform="translate(23.823714,43.932198) rotate(0)">
		<path class="st1" d="M5.6,1.4c-1.3,0-3.7,0-5,0l1-1.7c0.1,0.6,0.6,0.9,1.1,0.8s0.9-0.6,0.9-1.2l-1-6c0-0.3-0.2-0.6-0.5-0.7
			S1.5-7.6,1.2-7.5l-5.7,2.2C-5-5.1-5.2-4.6-5-4.1s0.7,0.7,1.2,0.6c-0.8,1.5-2.7,4-2.6,5.8c0,0,0,0.1,0,0.1c0,2.8,2.4,5.1,5.2,5.2
			h6.5c0.3,0,0.5-0.1,0.7-0.3s0.3-0.5,0.3-0.7V2.3C6.4,1.9,6,1.4,5.6,1.4z M-0.9-4.6l1.6-0.6L1-3.5l-2.8,4.8h-2.5
			C-4.2,1.1-0.9-4.6-0.9-4.6z M4.4,5.6h-5.5c-1.4,0-2.6-0.9-3.1-2.2h8.6L4.4,5.6z"/>
	</g>
	<g id="eToys3X4rQS6_tr" transform="translate(31.947503,29.846997) rotate(0)">
		<path class="st0" d="M6.1,6.5c0.5,0,0.9-0.4,1-0.8s1-6,1-6c0.1-0.6-0.3-1.1-0.8-1.1S6.2-1.2,6.1-0.6C5.2-2.1,4.1-5,2.4-5.8h0l0,0
			c-2.5-1.4-5.6-0.5-7.1,1.9L-8,1.7c-0.1,0.2-0.2,0.5-0.1,0.8S-7.9,3-7.6,3.1L-4,5.2c0.2,0.1,0.5,0.2,0.8,0.1s0.5-0.2,0.6-0.5
			l2.4-4.2l1,1.8C0.3,2.3-0.2,2.6-0.4,3s0,1,0.4,1.2C0.5,4.5,6.1,6.6,6.1,6.5z M-3.9,3l-1.9-1.1L-3-2.9C-2.3-4.1-1-4.7,0.4-4.5
			C1.8-4.2-3.9,2.9-3.9,3z M2.1-3.5c0.1-0.1,3.3,5.7,3.5,5.9L5.3,4.2L3.7,3.5L0.9-1.3L2.1-3.5z"/>
	</g>
</g>
</svg>
