<?xml version="1.0" encoding="utf-8"?>
<!-- Generator: Adobe Illustrator 25.0.0, SVG Export Plug-In . SVG Version: 6.00 Build 0)  -->
<svg version="1.1" id="Layer_1" xmlns="http://www.w3.org/2000/svg" xmlns:xlink="http://www.w3.org/1999/xlink" x="0px" y="0px"
	 viewBox="0 0 64 64" style="enable-background:new 0 0 64 64;" xml:space="preserve">
<style type="text/css">
	.st0{fill:#FAFAFC;}
</style>
<g id="solid_gradient">
	<path class="st0" d="M41,25.3l3.6,2.7h-7.2L41,25.3z M43,36v-2h-4v2H43z M27,36h10v-2h-7.4L27,36z M25,38c-0.6,0-1,0.4-1,1
		s0.4,1,1,1c0.6,0,1-0.4,1-1c0-0.2,0-0.3-0.1-0.4C25.7,38.2,25.4,38,25,38z M34.8,30l-2.7,2h17.6l-2.7-2c-0.1,0-0.1,0-0.2,0H35
		C34.9,30,34.9,30,34.8,30L34.8,30z M30,44v-2h-2.2c0.2,0.6,0.2,1.4,0,2H30z M34,43h-2v2h2V43z M30,50h-2.2c0.2,0.6,0.2,1.4,0,2H42
		v-2h-2c0,0.6-0.4,1-1,1h-8C30.4,51,30,50.6,30,50z M32,49h2v-2h-2V49z M7,56c-1.1,0-2,0.9-2,2s0.9,2,2,2s2-0.9,2-2S8.1,56,7,56z
		 M17,53c-0.6,0-1-0.4-1-1s0.4-1,1-1h5c0-0.3,0.1-0.7,0.2-1h-8.7c0.7,1.2,0.7,2.8,0,4h8.7c0.1-0.4,0.3-0.7,0.6-1H17z M20,57h2.8
		c-0.2-0.2-0.3-0.4-0.5-0.7c0-0.1-0.1-0.2-0.1-0.3h-5.7c0.7,1.2,0.7,2.8,0,4h5.7c-0.1-0.3-0.2-0.7-0.2-1h-2c-0.6,0-1-0.4-1-1
		S19.4,57,20,57z M25,42c-0.6,0-1,0.4-1,1s0.4,1,1,1c0.6,0,1-0.4,1-1c0-0.2,0-0.3-0.1-0.4C25.7,42.2,25.4,42,25,42z M12,52
		c0-1.1-0.9-2-2-2s-2,0.9-2,2s0.9,2,2,2S12,53.1,12,52z M13,56c-1.1,0-2,0.9-2,2s0.9,2,2,2s2-0.9,2-2S14.1,56,13,56z M25,46
		c-0.6,0-1,0.4-1,1s0.4,1,1,1c0.6,0,1-0.4,1-1c0-0.2,0-0.3-0.1-0.4C25.7,46.2,25.4,46,25,46z M25,50c-0.6,0-1,0.4-1,1s0.4,1,1,1
		c0.6,0,1-0.4,1-1c0-0.2,0-0.3-0.1-0.4C25.7,50.2,25.4,50,25,50z M25,54c-0.6,0-1,0.4-1,1s0.4,1,1,1c0.6,0,1-0.4,1-1
		c0-0.2,0-0.3-0.1-0.4C25.7,54.2,25.4,54,25,54z M25.3,58.1C25.2,58,25.1,58,25,58c-0.6,0-1,0.4-1,1s0.4,1,1,1s1-0.4,1-1
		C26,58.6,25.7,58.2,25.3,58.1L25.3,58.1z M36,49h2v-2h-2V49z M57,54c-0.6,0-1,0.4-1,1c0,0.6,0.4,1,1,1s1-0.4,1-1
		c0-0.2,0-0.3-0.1-0.4C57.7,54.2,57.4,54,57,54z M57.3,58.1C57.2,58,57.1,58,57,58c-0.6,0-1,0.4-1,1c0,0.6,0.4,1,1,1
		c0.6,0,1-0.4,1-1C58,58.6,57.7,58.2,57.3,58.1L57.3,58.1z M45,34v2h10l-2.6-2H45z M57,50c-0.6,0-1,0.4-1,1c0,0.6,0.4,1,1,1
		s1-0.4,1-1c0-0.2,0-0.3-0.1-0.4C57.7,50.2,57.4,50,57,50z M54.2,38H27.8c0.2,0.6,0.2,1.4,0,2h26.4C54,39.4,53.9,38.6,54.2,38z
		 M57,42c-0.6,0-1,0.4-1,1c0,0.6,0.4,1,1,1s1-0.4,1-1c0-0.2,0-0.3-0.1-0.4C57.7,42.2,57.4,42,57,42z M41,20.2L22,34.5V36h1.7
		l16.7-12.8c0.4-0.3,0.9-0.3,1.2,0L58.3,36H60v-1.5L41,20.2z M57,46c-0.6,0-1,0.4-1,1c0,0.6,0.4,1,1,1s1-0.4,1-1
		c0-0.2,0-0.3-0.1-0.4C57.7,46.2,57.4,46,57,46z M57,38c-0.6,0-1,0.4-1,1c0,0.6,0.4,1,1,1s1-0.4,1-1c0-0.2,0-0.3-0.1-0.4
		C57.7,38.2,57.4,38,57,38z M52,56h2.2c-0.2-0.6-0.2-1.4,0-2H52V56z M30,48v-2h-2.2c0.2,0.6,0.2,1.4,0,2H30z M42,54H27.8
		c0.2,0.6,0.2,1.4,0,2H42V54z M27.8,60L27.8,60H38v-2H27.8C28.1,58.6,28.1,59.4,27.8,60z M38,43h-2v2h2V43z M52,52h2.2
		c-0.2-0.6-0.2-1.4,0-2H52V52z M42,42h-2v2h2V42z M40,48h2v-2h-2V48z M52,42v2h2.2c-0.2-0.6-0.2-1.4,0-2H52z M52,48h2.2
		c-0.2-0.6-0.2-1.4,0-2H52V48z M44,42v14h6V42H44z M54.2,58L54.2,58H40v2h14.2C54,59.4,53.9,58.6,54.2,58z M11,33.7v-3.6l-3.2,4.5
		c-0.3,0.5-0.9,0.6-1.4,0.3c-0.5-0.3-0.6-0.9-0.3-1.4c0,0,0,0,0-0.1l4.8-6.7v-3.6l-3.2,4.5c-0.3,0.5-0.9,0.6-1.4,0.3
		c-0.5-0.3-0.6-0.9-0.3-1.4c0,0,0,0,0-0.1l4.8-6.7v-3.6l-3.2,4.5c-0.3,0.5-0.9,0.6-1.4,0.3c-0.5-0.3-0.6-0.9-0.3-1.4c0,0,0,0,0-0.1
		l5-7c0.4-0.4,1-0.5,1.5-0.2c0.1,0.1,0.1,0.1,0.2,0.2l5,7c0.3,0.4,0.3,1.1-0.2,1.4c-0.4,0.3-1.1,0.3-1.4-0.2c0,0,0,0,0-0.1L13,16.1
		v3.6l4.8,6.7c0.3,0.4,0.3,1.1-0.2,1.4c-0.4,0.3-1.1,0.3-1.4-0.2c0,0,0,0,0-0.1L13,23.1v3.6l4.8,6.7c0.3,0.4,0.3,1.1-0.2,1.4
		c-0.4,0.3-1.1,0.3-1.4-0.2c0,0,0,0,0-0.1L13,30.1v3.6l4.8,6.7c0.3,0.4,0.3,1.1-0.2,1.4c-0.4,0.3-1.1,0.3-1.4-0.2c0,0,0,0,0-0.1
		L13,37.1V48h-2V37.1l-3.2,4.5c-0.3,0.5-0.9,0.6-1.4,0.3c-0.5-0.3-0.6-0.9-0.3-1.4c0,0,0,0,0-0.1L11,33.7z M22.2,21.4
		c-0.3,0.5-0.2,1.1,0.3,1.4c0.5,0.3,1.1,0.2,1.4-0.3l2.2-3.3V28h2v-8.7l2.2,3.3c0.3,0.5,0.9,0.6,1.4,0.3c0.5-0.3,0.6-0.9,0.3-1.4
		L28,15.7v-2.4l2.2,3.3c0.3,0.5,0.9,0.6,1.4,0.3c0.5-0.3,0.6-0.9,0.3-1.4l0,0L28,9.7V6.3l2.2,3.3c0.3,0.5,0.9,0.6,1.4,0.3
		c0.5-0.3,0.6-0.9,0.3-1.4l-4-6c-0.3-0.5-1-0.6-1.5-0.2c-0.1,0.1-0.2,0.1-0.2,0.2l-4,6c-0.3,0.5-0.2,1.1,0.3,1.4
		c0.5,0.3,1.1,0.2,1.4-0.3L26,6.3v3.4l-3.8,5.7c-0.3,0.5-0.2,1.1,0.3,1.4c0.5,0.3,1.1,0.2,1.4-0.3l2.2-3.3v2.4L22.2,21.4z
		 M48.3,18.3c-0.4,0.4-0.4,1,0,1.4c0.4,0.4,1,0.4,1.4,0l2.3-2.3V27h2v-9.6l2.3,2.3c0.4,0.4,1,0.4,1.4,0c0.4-0.4,0.4-1,0-1.4L54,14.6
		v-2.2l2.3,2.3c0.4,0.4,1,0.4,1.4,0c0.4-0.4,0.4-1,0-1.4L54,9.6V7.4l2.3,2.3c0.4,0.4,1,0.4,1.4,0c0.4-0.4,0.4-1,0-1.4l-4-4
		c-0.4-0.4-1-0.4-1.4,0l-4,4c-0.4,0.4-0.4,1,0,1.4c0.4,0.4,1,0.4,1.4,0L52,7.4v2.2l-3.7,3.7c-0.4,0.4-0.4,1,0,1.4
		c0.4,0.4,1,0.4,1.4,0l2.3-2.3v2.2L48.3,18.3z"/>
</g>
</svg>
