<?xml version="1.0" encoding="utf-8"?>
<!-- Generator: Adobe Illustrator 25.0.0, SVG Export Plug-In . SVG Version: 6.00 Build 0)  -->
<svg version="1.1" id="eAcdjvkesI21" text-rendering="geometricPrecision" shape-rendering="geometricPrecision"
	 xmlns="http://www.w3.org/2000/svg" xmlns:xlink="http://www.w3.org/1999/xlink" x="0px" y="0px" viewBox="0 0 64 64"
	 style="enable-background:new 0 0 64 64;" xml:space="preserve">
<style type="text/css">
	.st0{fill:#FCFCFC;}
</style>
<path class="st0" d="M61,30H49.2L49,29.7V11h1V9.2c0.9-0.8,1.2-2.1,0.8-3.3S49.2,4,48,4s-2.4,0.8-2.8,1.9S45.1,8.4,46,9.2V11h1v15.2
	l-2.1-3.7C44.7,22.2,44.4,22,44,22H20c-0.4,0-0.7,0.2-0.9,0.5L17,26.2V11h1V9.2c0.9-0.8,1.2-2.1,0.8-3.3S17.2,4,16,4
	s-2.4,0.8-2.8,1.9S13.1,8.4,14,9.2V11h1v18.7L14.8,30H3c-0.6,0-1,0.4-1,1v30c0,0.6,0.4,1,1,1h58c0.6,0,1-0.4,1-1V31
	C62,30.4,61.6,30,61,30z M48,6c0.6,0,1,0.4,1,1s-0.4,1-1,1s-1-0.4-1-1S47.4,6,48,6z M16,6c0.6,0,1,0.4,1,1s-0.4,1-1,1s-1-0.4-1-1
	S15.4,6,16,6z M60,32v8H49v-2h3c0.4,0,0.7-0.2,0.9-0.5s0.2-0.7,0-1L50.3,32H60z M47,41v19h-5v-9c0-0.6-0.4-1-1-1H23
	c-0.6,0-1,0.4-1,1v9h-4.9L17,38h30V41z M20.6,24h22.8l6.9,12H13.7L20.6,24z M4,32h9.7l-2.6,4.5c-0.2,0.3-0.2,0.7,0,1S11.6,38,12,38
	h3v2H4V32z M4,42h11v18H4V42z M24,52h2v8h-2V52z M28,52h3v8h-3V52z M33,60v-8h3v8H33z M38,60v-8h2v8H38z M49,60V42h11v18H49z"/>
<g id="eAcdjvkesI23_tr" transform="translate(9.5,48.891946) rotate(3240)">
	<path class="st0" d="M0-4c-1.9,0-3.5,1.6-3.5,3.5V3c0,0.6,0.4,1,1,1h5c0.6,0,1-0.4,1-1v-3.5C3.5-2.4,1.9-4,0-4z M1.5,2h-3v-2.5
		C-1.5-1.3-0.8-2,0-2s1.5,0.7,1.5,1.5V2z"/>
</g>
<g id="eAcdjvkesI24_tr" transform="translate(22.608053,43.67584) rotate(360)">
	<path class="st0" d="M-2.5,4h5c0.6,0,1-0.4,1-1v-3.5C3.5-2.4,1.9-4,0-4s-3.5,1.6-3.5,3.5V3C-3.5,3.6-3.1,4-2.5,4z M-1.5-0.5
		C-1.5-1.3-0.8-2,0-2s1.5,0.7,1.5,1.5V2h-3V-0.5z"/>
</g>
<g id="eAcdjvkesI25_tr" transform="translate(25.5,29.891946) rotate(0)">
	<path class="st0" d="M-2.5,4h5c0.6,0,1-0.4,1-1v-3.5C3.5-2.4,1.9-4,0-4s-3.5,1.6-3.5,3.5V3C-3.5,3.6-3.1,4-2.5,4z M-1.5-0.5
		C-1.5-1.3-0.8-2,0-2s1.5,0.7,1.5,1.5V2h-3V-0.5z"/>
</g>
<g id="eAcdjvkesI26_tr" transform="translate(37.5,30) rotate(0)">
	<path class="st0" d="M-2.5,4h5c0.6,0,1-0.4,1-1v-3.5C3.5-2.4,1.9-4,0-4s-3.5,1.6-3.5,3.5V3C-3.5,3.6-3.1,4-2.5,4z M-1.5-0.5
		C-1.5-1.3-0.8-2,0-2s1.5,0.7,1.5,1.5V2h-3V-0.5z"/>
</g>
<g id="eAcdjvkesI27_tr" transform="translate(32.108053,43.783893) rotate(0)">
	<path class="st0" d="M-3,4h6c0.6,0,1-0.4,1-1V0c0-2.2-1.8-4-4-4s-4,1.8-4,4v3C-4,3.6-3.6,4-3,4z M-2,0c0-1.1,0.9-2,2-2s2,0.9,2,2v2
		h-4V0z"/>
</g>
<g id="eAcdjvkesI28_tr" transform="translate(41.608053,43.783893) rotate(0)">
	<path class="st0" d="M-2.5,4h5c0.6,0,1-0.4,1-1v-3.5C3.5-2.4,1.9-4,0-4s-3.5,1.6-3.5,3.5V3C-3.5,3.6-3.1,4-2.5,4z M-1.5-0.5
		C-1.5-1.3-0.8-2,0-2s1.5,0.7,1.5,1.5V2h-3V-0.5z"/>
</g>
<g id="eAcdjvkesI29_tr" transform="translate(54.608053,48.891946) rotate(0)">
	<path class="st0" d="M0-4c-1.9,0-3.5,1.6-3.5,3.5V3c0,0.6,0.4,1,1,1h5c0.6,0,1-0.4,1-1v-3.5C3.5-2.4,1.9-4,0-4z M1.5,2h-3v-2.5
		C-1.5-1.3-0.8-2,0-2s1.5,0.7,1.5,1.5V2z"/>
</g>
</svg>
