<?xml version="1.0" encoding="utf-8"?>
<!-- Generator: Adobe Illustrator 25.0.0, SVG Export Plug-In . SVG Version: 6.00 Build 0)  -->
<svg version="1.1" id="Layer_1" xmlns="http://www.w3.org/2000/svg" xmlns:xlink="http://www.w3.org/1999/xlink" x="0px" y="0px"
	 viewBox="0 0 64 64" style="enable-background:new 0 0 64 64;" xml:space="preserve">
<style type="text/css">
	.st0{fill:#FAFAFC;}
</style>
<g id="Layer_30">
	<path class="st0" d="M60.7,44.8c-0.9-2.3-3.5-3.4-5.8-2.5c0,0,0,0,0,0l-12.7,4.5c0.4-2.3-1.2-4.5-3.5-4.9c-0.2,0-0.5-0.1-0.7-0.1
		h-7.2c-0.4,0-0.7-0.1-1.1-0.3l-6.9-3.7c-0.6-0.3-1.3-0.5-2-0.5h-8.9v-3.6c0-0.6-0.4-1-1-1H4c-0.6,0-1,0.4-1,1v24.5c0,0.6,0.4,1,1,1
		h6.8c0.6,0,1-0.4,1-1v-2.3c2.8-0.1,5.8,0.1,8.2,1.5l8.3,2.4c2.4,1.3,5.4,1.3,7.8,0l22.4-9.6C60.6,49.4,61.5,47,60.7,44.8z
		 M9.8,57.4H5V34.9h4.8V57.4z M57.7,48.7l-22.4,9.6c-2,1-4.4,1-6.3-0.1l-8.3-2.5c-2.7-1.5-5.9-1.7-8.9-1.6V39.4h8.9
		c0.4,0,0.7,0.1,1.1,0.3l6.9,3.7c0.6,0.3,1.3,0.5,2,0.5h7.2c1.3,0,2.3,1.1,2.3,2.3c0,0.6-0.3,1.2-0.8,1.7l-1.7,0.6H26.8
		c-0.6,0-1,0.4-1,1s0.4,1,1,1h11.1c0.9,0,1.8-0.3,2.5-0.8l15.2-5.3c1.3-0.5,2.7,0.1,3.2,1.4C59.2,46.8,58.8,48.1,57.7,48.7z"/>
	<path class="st0" d="M43.9,37.3c6.2,0,11.3-5.1,11.3-11.3c0-6-10-18.8-10.5-19.3c-0.3-0.4-1-0.5-1.4-0.2c-0.1,0-0.1,0.1-0.2,0.2
		C42.7,7.3,32.7,20.1,32.7,26C32.7,32.2,37.7,37.3,43.9,37.3z M43.9,9c3.2,4.2,9.3,13,9.3,17c0.2,5.1-3.8,9.4-9,9.6
		c-5.1,0.2-9.4-3.8-9.6-9c0-0.2,0-0.4,0-0.6C34.7,22,40.8,13.1,43.9,9z"/>
	<path class="st0" d="M43.9,33.2c4,0,7.2-3.2,7.2-7.2c0-0.6-0.4-1-1-1s-1,0.4-1,1c0,2.9-2.3,5.2-5.2,5.2c0,0,0,0,0,0
		c-0.6,0-1,0.4-1,1S43.4,33.2,43.9,33.2z"/>
</g>
</svg>
